<?xml version="1.0" encoding="UTF-8"?>
<!-- Created with EazyDraw for Mac ( http://www.eazydraw.com/ ) -->

<svg
    version="1.1"
    xmlns:dc="http://purl.org/dc/elements/1.1/"
    xmlns:cc="http://creativecommons.org/ns#"
    xmlns:rdf="http://www.w3.org/1999/02/22-rdf-syntax-ns#"
    xmlns:svg="http://www.w3.org/2000/svg"
    xmlns:xlink="http://www.w3.org/1999/xlink"
    xmlns="http://www.w3.org/2000/svg"
    width="674.550099001"
    height="674.636190197"
    viewBox="0, 0, 674.550099001, 674.636190197"
    preserveAspectRatio="none"
    id="svg2">
   <defs
       id="defs_2F7C4A33"/>
   <metadata
       id="metadata7">
      <rdf:RDF>
         <cc:Work
             rdf:about="">
            <dc:format>image/svg+xml</dc:format>
            <dc:type rdf:resource="http://purl.org/dc/dcmitype/StillImage"/>
            <dc:title></dc:title>
         </cc:Work>
      </rdf:RDF>
   </metadata>
   <g
       id="layer_Paper"
       style="fill:#000000;fill-opacity:1;stroke:#000000;stroke-opacity:1;fill-rule:nonzero;stroke-linecap:square;stroke-linejoin:miter;stroke-width:24.9999990463;stroke-miterlimit:10">
      <polygon
          style="fill:#118040;stroke:none"
          id="60B22D72"
          points="674.550099001,674.636190197 0,674.636190197 674.550099001,0"/>
      <rect
          style="fill:#102840;stroke:none"
          id="4767E042"
          x="-189.776107013"
          y="-784.229938547"
          width="29.8137975178"
          height="652.337587563"
          transform="matrix(-0.891881804186,0.452268556681,-0.452268556681,-0.891881804186,0,0)"/>
      <path
          style="fill:none;stroke:#102840"
          id="8CB020D1"
          d="M229.452949653,79.4520349325 C92.7408306788,155.732357609 43.7511803117,328.396846946 120.031502989,465.10896592 C193.184554396,596.21628582 355.875515457,647.546806795 491.024111667,582.160606387"/>
      <rect
          style="fill:#102840;stroke:none"
          id="D1A36C32"
          x="-181.400405239"
          y="193.035475639"
          width="25.4221594513"
          height="34.5646760729"
          transform="matrix(-0.419981068191,-0.90753286572,0.90753286572,-0.419981068191,0,0)"/>
      <rect
          style="fill:#102840;stroke:none"
          id="AD495A42"
          x="-756.924758458"
          y="178.423677009"
          width="25.6171211738"
          height="28.2048242798"
          transform="matrix(-0.461594822148,-0.887090874807,0.887090874807,-0.461594822148,0,0)"/>
      <path
          style="fill:#F9F9F9;stroke:none"
          id="8467E4B1"
          d="M612.905449682,327.252006018 C612.905449682,462.356309818 502.835206291,571.879987946 367.05668007,571.879987946 C231.278153849,571.879987946 121.207910459,462.356309818 121.207910459,327.252006018 C121.207910459,192.147702217 231.278153849,82.6240240897 367.05668007,82.6240240897
C502.835206291,82.6240240897 612.905449682,192.147702217 612.905449682,327.252006018 z"/>
      <path
          style="fill:#102840;stroke:none"
          id="6767E4B1"
          d="M297.61515658,234.212208608 C318.475075741,240.757658071 273.878171934,262.431552075 288.192982109,247.660932615 C291.964794894,242.820295669 286.788943576,236.907913956 296.113368529,235.882123084 L296.715841903,234.702703926
L297.615089693,234.212429726 z M258.725563347,149.434967273 C273.93550303,144.846499911 275.184365397,137.419658629 290.501323125,130.25931147 C293.66619071,122.77199948 300.87347385,120.003325503 306.977324503,116.103012879
C293.186329439,118.676238605 304.223998634,105.965276469 290.312130509,116.794244029 C296.260804996,106.467116052 271.458799696,113.478834093 288.972493907,113.204456665 C280.325340298,123.052818143 262.056500005,138.890567752 248.402144052,146.854627347
C246.02854114,145.180867357 265.815508845,128.673998304 248.616447688,142.537076449 C243.200092424,152.451773044 226.340450464,155.930040501 237.812402708,143.795328645 C246.05049895,139.387984994 242.933789485,129.123731172 249.414305437,135.050052872
C260.110376853,130.414093411 257.672849768,129.273610082 268.066977414,123.73751192 C259.300097367,121.633246632 247.71443845,131.196847795 238.560573507,133.493581061 C262.744740699,113.497869387 223.278969955,130.113662626 218.204212469,141.996974001
C209.304419832,151.014800582 188.130230715,169.532777345 208.993876397,153.524863739 C213.936581259,156.205187031 239.693722613,125.909265979 237.104268125,141.7777797 C231.377082771,147.042961397 229.240543939,151.571342603 222.599500919,155.058262467
C211.882408101,166.565001878 243.922846437,144.916680542 224.20696929,161.066397478 C211.099169782,169.836092266 213.012117341,187.164939947 199.942538564,195.39434001 C191.360169093,198.061011728 188.966500297,220.293082096 186.676123025,212.463615494
C174.846806951,201.510630105 210.872711955,192.049704167 190.308047936,192.985125459 C188.744533405,188.900901126 187.677123955,199.291480086 183.106306801,192.910618625 C177.452887456,200.659329432 184.397403075,210.989341546 173.395374712,208.948334964
C163.099665447,209.030244414 187.121394535,197.309886696 168.476462255,200.637698416 C165.555825137,199.239181094 160.855153051,206.847434502 156.167476013,213.138503209 C142.718556486,223.027242585 138.291640382,238.049743215 133.075466194,254.820029981
C117.922857607,303.536924705 118.435970913,368.205011702 137.792477642,414.06276673 C177.459840694,517.319480234 272.425000652,575.574356768 377.956123735,571.796246789 C367.88700806,567.008666502 345.274668407,552.733926077 366.027569523,543.621019161
C354.289983203,535.352779405 359.790424073,522.837938486 343.701885349,514.637379777 C354.343492225,505.421893773 346.022456999,491.890202801 332.627428702,494.796450044 C320.71402702,496.598554065 314.334987108,482.221619105 301.885539682,488.40366749
C284.361334771,489.570588727 265.277724057,483.321436123 249.354012234,474.973209675 C234.319887912,460.472737576 217.791333029,442.428624283 218.910244912,422.125271485 C222.865134996,411.155942662 225.337920704,404.10038576 222.711296556,393.630012385
C235.347070042,382.385729307 240.812634497,364.530046201 258.00049698,364.646373001 C254.872416848,350.259343567 295.465412486,333.56788984 268.306716946,332.671885066 C267.841045121,318.605956056 269.677503444,314.269177587 275.373538902,300.3945629
C273.624080518,276.507191009 299.696256243,306.623045867 305.861260064,292.815919951 C318.292552643,278.606745542 283.591951468,262.834369672 310.948821494,266.729875403 C321.476721697,266.867612102 325.064692767,257.530828972 311.293496041,261.7539725
C300.653800202,260.994627682 291.191302862,263.477147345 304.812215675,254.508062654 C293.817067043,251.303115108 317.32281627,246.807709185 305.70903645,239.367312466 C305.081327839,235.098503459 310.53813019,233.349755945 304.823748781,233.856786973
C301.906551529,229.843993063 313.252757571,224.530454026 303.440062787,222.208724919 C308.643337478,207.222756673 308.008108938,219.493119036 311.4647918,217.460476448 C315.672512016,216.623894481 321.023796486,222.189689625 314.202064963,228.441341814
C320.085668657,239.168403252 327.765646681,251.387524141 324.256983626,258.854551045 C330.483905031,253.849806787 342.451006838,249.790866708 345.862207031,245.087610751 C336.725732521,227.865476085 364.269310816,219.457259618 352.014406908,234.986406724
C347.074473049,246.538330926 361.06306929,244.724209674 351.947902837,237.950240539 C359.367693239,239.665628218 364.072474054,232.008825196 357.523829651,223.79298057 C356.331725068,212.293932186 343.328650361,233.695179245 340.608289872,220.15108649
C332.124052127,199.640075934 362.875687432,196.688643902 366.582142767,179.230010121 C359.218632391,180.856662564 384.018439999,156.297287093 394.748910072,167.737691387 C406.59829203,168.309644306 429.941603152,182.724621013 405.505179139,179.806837229
C406.221512069,178.995529903 409.214118822,192.96137941 417.51222161,191.19148157 C426.891015552,193.418899444 411.135474942,184.402803344 419.448197159,185.164215125 C417.68593483,178.339389067 425.645688601,173.857442444 417.160495338,168.281447074
C431.20565826,166.198812803 419.714213443,174.031067404 429.042364917,178.32496839 C438.710298684,184.910603474 423.349004909,155.874857375 437.324892757,166.832649656 C454.990514371,148.008858388 416.458284968,165.61689039 415.762667674,148.464551803
C407.943661742,135.103313242 420.377820876,125.163620805 420.266407446,143.537102377 C423.632793833,156.854117527 438.782440313,153.005334792 449.120192381,154.950588073 C453.741078693,155.883327119 424.916914824,142.344993022 434.296282076,137.848625721
C440.973825893,135.725805828 443.566242488,137.858720195 439.466591388,133.603178211 C436.685268833,128.702455108 431.035289354,122.8972671 428.372068856,117.814458907 C410.810598733,107.956483643 450.087176862,117.629143585 436.605960817,107.415227541
C430.700284652,107.600167925 441.394540583,96.8439094214 426.530976271,99.2695635454 C415.989698812,106.166204578 396.725495148,87.7301372642 417.087207087,98.1506150951 C432.872368763,99.4434769182 400.693380279,84.6768952476 392.868641238,83.7299374131
C367.712711974,80.6872705601 347.767223789,83.2048036285 323.228559322,86.3754588028 C309.756707356,88.1162268747 312.028929781,97.8706616724 322.097416804,95.8215795116 C319.375718588,103.653545699 305.705501032,101.531783322 320.336396648,102.203210075
C311.149470774,106.114097863 339.224126119,107.262368357 326.418270381,115.385632233 C333.975846517,118.970612705 345.912753947,124.857421749 337.786071135,126.368420356 C354.016504321,125.979081286 326.187990481,139.554688028 325.420709316,146.386243736
C314.413138947,150.7903187 304.973574044,162.636424727 300.506526173,158.14967121 C308.711752586,164.497365113 292.561582935,165.643039885 288.123009507,163.152396574 C277.12499432,159.167771054 261.448761726,170.158346343 250.633250527,177.688439677
C231.3919793,191.105438192 244.458213764,156.291038133 258.721617057,149.441216234 z M487.017986324,535.639943166 C493.139609617,522.91513718 504.511614651,514.337718095 516.317998287,504.996003093 C531.414231297,499.413181935 506.239191667,526.49531076 497.805787494,529.806298355
C494.443796491,532.136968282 491.111522107,534.711636076 487.017986324,535.640327718 z M489.898873882,517.524687862 C488.266944244,535.685127957 462.318794789,536.169662727 454.014385581,549.532824046 C445.614520098,553.760870604 427.652592272,565.700326484 448.462528768,558.453808203
C503.556055901,539.097984665 531.942537343,509.546976693 549.438076707,491.487481343 C589.436071122,450.204926654 614.599644532,387.706670958 613.152034366,319.669913655 C611.249979716,314.693241649 602.022157659,270.9857058 600.73603008,291.725524443
C600.585965937,313.648800034 600.082016051,335.661483826 601.898513596,357.468432616 C595.674267642,386.629927025 586.788903332,323.393332632 585.077570126,339.446431028 C578.699676836,337.896015901 577.978069444,334.503695684 570.052045468,330.570311639
C564.261318149,339.417974224 551.344908949,350.49680406 543.246891684,343.833489592 C537.66465845,361.004671198 523.357779077,346.29029238 517.982033339,342.171746834 C504.391697109,353.764048934 537.276813588,366.834951184 540.904916426,357.831641418
C545.282909996,344.432909094 542.579175524,347.299739818 550.887215702,352.315828343 C561.44473697,354.566992266 552.643553818,374.863038588 549.442089883,384.091310926 C540.815384365,395.723029544 536.487173297,412.212593784 522.162999043,421.702361077
C514.013766,432.42653838 503.474017371,438.240955621 503.57912438,418.978583476 C493.891124729,404.87131519 481.374791025,401.702611613 473.529030582,385.721616606 C472.684161336,373.802445813 462.705875237,370.565484362 459.918628469,377.825045783
C453.165694261,373.362422868 470.052855147,397.132410443 474.091830838,400.393406356 C480.304132813,418.17890883 491.671455808,430.48166965 509.339943977,435.64427226 C510.784687588,459.527798637 547.77853259,398.881157956 538.328456987,430.222578141
C531.598550769,453.585998743 513.399941069,470.252456629 501.032668213,490.374108888 C493.818505341,498.678496476 483.907869936,508.505707627 489.894191842,517.522476692 z M453.889212688,511.728536813 C461.68203742,512.002827716 471.960929563,498.549960169 462.139730667,499.69303922
C455.464193438,499.84809996 455.66781438,507.077964399 453.889212688,511.728536813 z M365.307892279,136.387138107 C371.677090354,126.990528391 377.720074493,137.996005047 371.614217252,138.541779628 C379.207243115,147.267154866 365.119368527,135.617554608 367.01158134,149.513031209
C364.792485729,148.686082254 355.008360942,127.605137674 365.307892279,136.387330382 z M380.431835318,190.007063242 C381.95091825,199.551148422 363.145554454,205.896727291 378.990913781,213.194551576 C377.340255984,222.977539316 369.699931967,239.855500475 361.436132285,240.160257463
C350.350209418,248.173731913 375.00162504,247.21466071 378.957470642,241.048263567 C388.073401509,244.878203284 385.991040563,236.96202034 387.806429707,231.998711495 C383.855935008,220.847682133 401.132087379,233.032577947 391.483932839,219.84784848
C381.656427522,228.385466495 397.745921764,210.411918383 404.048042456,213.194340073 C401.167346002,205.675014178 380.527004938,225.1567729 384.031845919,209.570904461 C370.629746788,200.656714483 405.308371043,184.291456485 380.431453111,190.006851739
z M425.880105897,282.350353468 C426.73603049,287.672833325 424.415583057,296.462428647 420.267773837,303.089210732 C430.29020488,315.260262695 450.11147569,293.821233461 465.448499302,303.10449665 C484.223477617,291.258390623 443.290030824,273.889165045 439.801433652,292.741797668
C431.983574342,286.708859091 444.32218165,278.155762882 431.637963387,279.839136656 C428.513514224,279.297476776 428.477586738,274.144603315 425.879437034,282.351026433 z M501.421468594,304.493784738 C513.954046108,311.369948408 527.445963957,298.335963092 512.2111808,290.274996544
C505.591732494,281.702480489 503.630053503,274.624715744 494.604801319,270.843614056 C490.041437206,268.963253824 504.504926023,248.612697342 488.968294647,257.962103373 C478.156605521,262.932334142 483.464318358,277.691513198 489.354180697,282.283056972
C504.677827053,291.840024623 503.109821586,286.39708404 501.421420818,304.493784738 z M347.305928238,330.578867908 C337.025507265,337.144698594 337.746923552,321.105155636 341.946044103,316.411994153 C341.179001819,311.123739371 350.158341351,297.387274776 346.946175612,313.073414993
C344.603818147,317.895785748 350.827777445,324.78396665 347.305928238,330.579156321 z M283.930224042,336.375980336 C291.141424808,353.869223742 324.58657054,333.986185631 342.206327278,343.4421124 C350.688558434,340.259084284 356.186514958,342.050132452 353.205297982,351.214665395
C340.992819086,355.658829843 356.939845555,362.133041157 360.990096361,361.011112433 C372.801257588,362.625170817 375.719410358,373.385015263 388.595018928,374.727099666 C398.675736584,377.752173292 391.321685838,351.706891193 409.084197004,360.32853369
C412.843874707,366.31705658 421.233611695,363.291309988 428.241382624,364.931517868 C440.074520771,368.96257797 446.280611878,354.609196783 457.544261142,356.603961058 C461.416689999,347.687367634 460.300262462,320.824336972 458.868131692,324.851551559
C452.019072348,331.108779744 440.786859635,331.617252838 431.586174298,336.114100829 C426.894197427,332.547098136 422.450368649,340.540191361 420.926412575,327.933538793 C417.715775665,320.984406495 417.090006756,308.578105209 404.20102093,320.434786399
C400.422901725,321.255822876 416.111556056,329.882253038 412.864705005,334.379581717 C404.954638183,329.17612052 405.734532187,333.355136775 404.274978044,340.724006933 C396.957810302,336.279457933 391.209221339,316.87028329 380.87146927,308.165000862
C369.74923671,302.860594921 368.855827136,292.117670737 361.032043613,290.160304087 C354.960393925,306.273969329 387.632716487,317.20580439 382.4375637,321.880026716 C369.4138498,313.858476687 388.534343519,336.946750759 371.307686993,336.28051545
C371.422177192,348.587121784 347.861179899,328.432013552 368.688515888,334.201726693 C383.501915492,325.406170823 356.799957681,314.996268156 351.955480097,306.499604866 C347.313763488,287.580637125 335.038029281,315.923421593 325.599419897,300.185078522
C324.613420603,308.541188274 305.064376945,314.948968333 306.977324503,327.681465348 C300.001563437,334.269600016 294.239310563,336.560757286 283.931179561,336.37713399 z M286.8111116,182.757307882 C287.376979069,182.912580126 295.444027987,168.99613586 294.373083119,177.322635153
C313.599066054,179.789436278 293.34284333,198.178780595 283.210718792,185.655864096 L286.8111116,182.757307882 z"/>
   </g>
</svg>
